<?xml version="1.0" standalone="no"?>
<!DOCTYPE svg PUBLIC "-//W3C//DTD SVG 20010904//EN"
 "http://www.w3.org/TR/2001/REC-SVG-20010904/DTD/svg10.dtd">
<svg version="1.0" xmlns="http://www.w3.org/2000/svg"
 width="210.000000pt" height="70.000000pt" viewBox="0 0 210.000000 70.000000"
 preserveAspectRatio="xMidYMid meet">

<g transform="translate(0.000000,70.000000) scale(0.100000,-0.100000)"
fill="#000000" stroke="none">
<path d="M211 353 l-202 -338 402 -3 c221 -1 404 0 407 2 2 3 -26 56 -63 118
-145 242 -328 543 -335 551 -4 4 -98 -144 -209 -330z m287 166 c1 -8 -7 -29
-18 -46 -15 -26 -27 -33 -50 -33 -26 0 -30 4 -30 28 0 42 13 56 38 43 17 -9
22 -8 27 10 7 22 28 21 33 -2z m22 -90 c0 -5 11 -7 25 -3 30 7 32 -6 5 -31
-14 -13 -28 -16 -52 -11 -21 4 -29 3 -22 -4 8 -8 36 -16 67 -19 4 -1 7 -8 7
-16 0 -8 7 -15 15 -15 8 0 15 -4 15 -10 0 -17 -58 -11 -69 8 -6 9 -11 12 -11
5 0 -7 6 -18 14 -25 12 -11 6 -15 -34 -23 l-49 -10 19 -40 c11 -22 19 -57 20
-77 l0 -38 -50 0 c-66 0 -65 0 -66 40 0 34 39 120 55 120 4 0 13 23 20 50 11
44 11 54 -3 74 -15 23 -15 24 15 22 17 -1 33 3 36 10 5 13 43 7 43 -7z m-269
-177 c14 -11 20 -8 38 20 22 32 22 27 6 -31 -5 -16 -4 -21 4 -17 20 13 11 -10
-11 -30 -46 -41 -79 -57 -92 -44 -8 8 -4 16 16 31 l27 20 -25 36 c-32 47 -33
74 -1 47 12 -11 29 -25 38 -32z m138 -193 c-10 -6 -10 -10 0 -23 12 -14 9 -16
-22 -16 -33 0 -35 2 -32 28 2 15 4 27 4 28 1 0 15 -2 32 -4 21 -3 27 -7 18
-13z m311 6 c0 -12 -7 -14 -26 -9 -18 5 -25 3 -20 -4 3 -6 0 -13 -6 -16 -7 -3
5 -3 26 1 28 4 37 3 32 -6 -4 -6 -33 -11 -68 -11 -54 0 -59 2 -47 16 10 13 10
17 -1 24 -10 6 6 10 45 13 33 2 61 4 63 5 1 1 2 -5 2 -13z m-430 -10 c0 -8 5
-15 10 -15 6 0 10 -4 10 -10 0 -13 -47 -13 -55 0 -3 6 -11 10 -16 10 -6 0 -7
-4 -4 -10 4 -6 -9 -10 -31 -10 -32 0 -35 2 -23 16 10 13 10 17 -2 25 -9 6 7 9
49 9 48 0 62 -3 62 -15z m261 6 c-11 -7 -11 -9 0 -13 27 -9 -4 -28 -47 -28
-40 0 -44 2 -44 25 0 24 3 25 53 25 33 0 47 -3 38 -9z"/>
<path d="M452 338 c-10 -30 -10 -31 3 -14 13 17 21 46 12 46 -1 0 -8 -15 -15
-32z"/>
<path d="M461 310 c-13 -11 -19 -20 -13 -20 10 0 42 27 42 36 0 7 -4 5 -29
-16z"/>
<path d="M400 251 c0 -6 5 -13 10 -16 6 -3 10 1 10 9 0 9 -4 16 -10 16 -5 0
-10 -4 -10 -9z"/>
<path d="M400 185 c0 -15 6 -25 14 -25 19 0 28 14 20 34 -10 25 -34 19 -34 -9z"/>
<path d="M208 53 c7 -3 16 -2 19 1 4 3 -2 6 -13 5 -11 0 -14 -3 -6 -6z"/>
<path d="M478 33 c7 -3 16 -2 19 1 4 3 -2 6 -13 5 -11 0 -14 -3 -6 -6z"/>
<path d="M897 503 c-4 -3 -7 -37 -7 -75 0 -65 1 -68 24 -68 20 0 25 6 28 33
l4 32 19 -32 c15 -25 27 -33 48 -33 l29 0 -22 35 c-12 19 -17 35 -11 35 5 0
13 10 17 22 10 31 -27 58 -80 58 -24 0 -46 -3 -49 -7z m81 -40 c2 -8 -5 -13
-17 -13 -12 0 -21 6 -21 16 0 18 31 15 38 -3z"/>
<path d="M1060 435 c0 -68 2 -75 20 -75 18 0 20 7 20 75 0 68 -2 75 -20 75
-18 0 -20 -7 -20 -75z"/>
<path d="M1149 492 c-30 -25 -19 -50 31 -69 22 -9 40 -19 40 -23 0 -16 -29
-18 -40 -4 -16 18 -50 18 -50 0 0 -22 27 -38 65 -38 43 0 65 16 65 49 0 19 -8
28 -40 40 -40 16 -53 33 -25 33 8 0 15 -4 15 -10 0 -13 37 -13 45 -1 7 13 -34
41 -61 41 -12 0 -32 -8 -45 -18z"/>
<path d="M1290 435 l0 -75 60 0 c47 0 60 3 60 15 0 11 -11 15 -40 15 -29 0
-40 4 -40 15 0 10 11 15 35 15 24 0 35 5 35 15 0 10 -11 15 -35 15 -19 0 -35
5 -35 10 0 6 18 10 40 10 33 0 40 3 40 20 0 18 -7 20 -60 20 l-60 0 0 -75z"/>
<path d="M891 238 c2 -30 2 -31 6 -5 2 15 9 27 15 27 5 0 8 -6 5 -13 -3 -8 -1
-20 4 -28 5 -9 7 -4 6 16 -2 19 -9 31 -20 33 -14 3 -17 -3 -16 -30z"/>
<path d="M1410 266 c0 -2 7 -7 16 -10 8 -3 12 -2 9 4 -6 10 -25 14 -25 6z"/>
<path d="M1770 240 c0 -22 5 -30 18 -29 10 0 12 3 5 6 -7 2 -13 13 -13 23 0
10 6 21 13 23 7 3 5 6 -5 6 -13 1 -18 -7 -18 -29z"/>
<path d="M1032 240 c0 -14 2 -19 5 -12 2 6 2 18 0 25 -3 6 -5 1 -5 -13z"/>
<path d="M1139 238 c0 -22 -1 -22 -10 -3 -8 19 -9 19 -6 1 3 -30 27 -32 27 -2
0 32 -10 35 -11 4z"/>
<path d="M1522 235 c0 -16 2 -22 5 -12 2 9 2 23 0 30 -3 6 -5 -1 -5 -18z"/>
<path d="M1661 238 c-1 -21 4 -28 17 -28 11 0 13 3 6 8 -7 4 -14 16 -17 27 -4
15 -5 14 -6 -7z"/>
<path d="M1829 238 c0 -22 -1 -22 -10 -3 -8 19 -9 19 -6 1 3 -30 27 -32 27 -2
0 32 -10 35 -11 4z"/>
<path d="M960 236 c0 -8 -6 -17 -12 -19 -8 -3 -6 -6 5 -6 11 -1 17 6 17 19 0
11 -2 20 -5 20 -3 0 -5 -6 -5 -14z"/>
<path d="M1005 240 c3 -5 8 -10 11 -10 2 0 4 5 4 10 0 6 -5 10 -11 10 -5 0 -7
-4 -4 -10z"/>
<path d="M1171 239 c0 -9 6 -22 14 -29 12 -10 15 -9 15 4 0 10 -4 15 -9 11 -5
-3 -12 3 -14 12 -4 15 -5 15 -6 2z"/>
<path d="M1210 240 c0 -6 7 -10 15 -10 8 0 15 2 15 4 0 2 -7 6 -15 10 -8 3
-15 1 -15 -4z"/>
<path d="M1283 236 c1 -11 9 -21 17 -23 10 -3 11 -2 4 4 -6 4 -14 15 -17 23
-5 11 -6 9 -4 -4z"/>
<path d="M1340 236 c0 -8 -6 -17 -12 -19 -8 -3 -6 -6 5 -6 11 -1 17 6 17 19 0
11 -2 20 -5 20 -3 0 -5 -6 -5 -14z"/>
<path d="M1369 248 c-6 -21 -5 -38 1 -38 5 0 8 9 7 20 -1 17 -5 26 -8 18z"/>
<path d="M1451 233 c-1 -14 5 -23 14 -23 9 0 15 9 14 23 0 21 -1 21 -8 2 l-8
-20 -5 20 c-5 18 -6 18 -7 -2z"/>
<path d="M1493 230 c1 -11 5 -20 9 -20 3 0 6 9 5 20 -1 11 -5 20 -9 20 -3 0
-6 -9 -5 -20z"/>
<path d="M1549 236 c9 -11 9 -15 -1 -19 -8 -4 -7 -6 5 -6 22 -1 22 25 1 33
-14 5 -15 4 -5 -8z"/>
<path d="M1612 230 c0 -14 2 -19 5 -12 2 6 2 18 0 25 -3 6 -5 1 -5 -13z"/>
<path d="M1635 240 c3 -5 8 -10 11 -10 2 0 4 5 4 10 0 6 -5 10 -11 10 -5 0 -7
-4 -4 -10z"/>
<path d="M1721 241 c-15 -10 -6 -31 12 -30 8 0 7 3 -2 6 -11 4 -11 7 0 14 7 4
11 10 8 13 -2 3 -11 1 -18 -3z"/>
<path d="M1870 234 c0 -7 -6 -14 -12 -17 -7 -3 2 -5 20 -4 22 0 29 3 20 9 -10
6 -10 10 2 18 12 7 10 9 -8 7 -12 0 -22 -7 -22 -13z"/>
<path d="M1931 234 c7 -8 6 -14 -3 -17 -9 -4 -8 -6 3 -6 9 -1 19 7 21 17 4 12
-1 18 -13 18 -13 0 -15 -4 -8 -12z"/>
<path d="M1967 230 c-3 -11 -1 -20 4 -20 5 0 9 9 9 20 0 11 -2 20 -4 20 -2 0
-6 -9 -9 -20z"/>
<path d="M2008 231 c-16 -18 -15 -20 3 -18 11 1 19 9 19 19 0 23 -2 22 -22 -1z"/>
<path d="M1418 213 c7 -3 16 -2 19 1 4 3 -2 6 -13 5 -11 0 -14 -3 -6 -6z"/>
</g>
</svg>
